# xmcd CD database file
#
# Track frame offsets:
#	150
#	19967
#	34664
#	50071
#	64024
#	80152
#	87502
#	106159
#	122016
#	132805
#	151742
#	155294
#	172887
#	196356
#	216085
#
# Disc length: 3087 seconds
#
# Revision: 0
# Processed by: cddbd v1.5.1PL2 Copyright (c) Steve Scherf et al.
# Submitted via: CdAid (MTCDDB.DLL V2003.12.21)
#
DISCID=c30c0d0f
DTITLE=Clueso - weit weg (Promo-CD)
DYEAR=2006
DGENRE=Rock
TTITLE0=Frische Luft - Promo -
TTITLE1=Sterblich - Promo -
TTITLE2=Machs gut - Promo -
TTITLE3=Bleib einfach hier - Promo -
TTITLE4=Da wohnt so ein Typ feat. Max Herre - Promo -
TTITLE5=weit weg feat. New Telephatics - Promo -
TTITLE6=Schwer - Promo -
TTITLE7=Chicago - Promo -
TTITLE8=Mein Bestes - Promo -
TTITLE9=viel gesehen - Promo -
TTITLE10=Ey Tino! - Promo -
TTITLE11=Überall bist du - Promo -
TTITLE12=Morgen gestern feat. Immo - Promo -
TTITLE13=Crash - Promo -
TTITLE14=Hirn ein  - Promo -
EXTD=Promo-CD ID3G:  17 YEAR: 2006
EXTT0=
EXTT1=
EXTT2=
EXTT3=
EXTT4=
EXTT5=
EXTT6=
EXTT7=
EXTT8=
EXTT9=
EXTT10=
EXTT11=
EXTT12=
EXTT13=
EXTT14=
PLAYORDER=
